<svg width="464.93251953124997px" height="114.8175048828125px" xmlns="http://www.w3.org/2000/svg" viewBox="17.533740234375017 17.59124755859375 464.93251953124997 114.8175048828125" style="background: none;" preserveAspectRatio="xMidYMid"><defs><filter id="editing-neon" x="-100%" y="-100%" width="300%" height="300%"><feFlood flood-color="#06623b" result="flood"></feFlood><feComposite operator="in" in="flood" in2="SourceAlpha" result="color"></feComposite><feFlood flood-color="#06623b" result="flood2"></feFlood><feComposite operator="in" in="flood2" in2="SourceAlpha" result="color2"></feComposite><feMorphology operator="dilate" radius="2" in="color" result="dilate"></feMorphology><feGaussianBlur stdDeviation="6" in="color" result="blur1"></feGaussianBlur><feGaussianBlur stdDeviation="2.5" in="color" result="blur2"></feGaussianBlur><feGaussianBlur stdDeviation="1" in="SourceAlpha" result="blur3"></feGaussianBlur><feGaussianBlur stdDeviation="6" in="dilate" result="blur4"></feGaussianBlur><feConvolveMatrix in="color2" result="conv" order="3,3" divisor="1" kernelMatrix="1 1 1  1 1 1  1 1 1"></feConvolveMatrix><feMerge><feMergeNode in="blur1"></feMergeNode><feMergeNode in="blur2"></feMergeNode><feMergeNode in="blur4"></feMergeNode><feMergeNode in="blur3"></feMergeNode><feMergeNode in="blur3"></feMergeNode><feMergeNode in="blur3"></feMergeNode><feMergeNode in="blur3"></feMergeNode><feMergeNode in="conv"></feMergeNode><feMergeNode in="SourceGraphic"></feMergeNode></feMerge></filter></defs><g filter="url(#editing-neon)"><g transform="translate(87.05500185489655, 102.32999801635742)"><path d="M10.30 11.65L10.30 11.65Q6.59 11.65 3.87 9.76L3.87 9.76L3.87 9.76Q1.15 7.87 1.15 3.52L1.15 3.52L1.15 3.52Q1.15-1.73 6.59-3.65L6.59-3.65L6.59-3.65Q5.06-4.48 4.06-5.79L4.06-5.79L4.06-5.79Q3.07-7.10 3.07-8.83L3.07-8.83L3.07-8.83Q3.07-11.33 4.83-12.61L4.83-12.61L4.83-12.61Q6.59-13.89 8.70-14.40L8.70-14.40L8.70-14.40Q6.59-15.94 5.38-18.18L5.38-18.18L5.38-18.18Q4.16-20.42 4.16-23.10L4.16-23.10L4.16-23.10Q4.16-28.48 7.81-31.46L7.81-31.46L7.81-31.46Q11.46-34.43 17.79-34.43L17.79-34.43L17.79-34.43Q21.31-34.43 24.19-33.28L24.19-33.28L24.19-33.28Q28.35-35.26 29.06-39.10L29.06-39.10L34.43-39.10L34.43-39.10Q34.43-36.10 32.67-33.92L32.67-33.92L32.67-33.92Q30.91-31.74 27.90-31.04L27.90-31.04L27.90-31.04Q31.49-27.84 31.49-23.10L31.49-23.10L31.49-23.10Q31.49-17.73 27.81-14.75L27.81-14.75L27.81-14.75Q24.13-11.78 17.79-11.78L17.79-11.78L12.42-11.78L12.42-11.78Q10.69-11.78 9.76-11.01L9.76-11.01L9.76-11.01Q8.83-10.24 8.83-9.02L8.83-9.02L8.83-9.02Q8.83-7.81 9.76-7.04L9.76-7.04L9.76-7.04Q10.69-6.27 12.42-6.27L12.42-6.27L25.92-6.27L25.92-6.27Q29.89-6.27 32.19-3.87L32.19-3.87L32.19-3.87Q34.50-1.47 34.50 1.92L34.50 1.92L34.50 1.92Q34.50 4.35 33.41 6.59L33.41 6.59L33.41 6.59Q32.32 8.83 29.92 10.24L29.92 10.24L29.92 10.24Q27.52 11.65 23.87 11.65L23.87 11.65L10.30 11.65ZM17.86-16.13L17.86-16.13Q21.82-16.13 23.87-17.95L23.87-17.95L23.87-17.95Q25.92-19.78 25.92-23.10L25.92-23.10L25.92-23.10Q25.92-26.43 23.87-28.26L23.87-28.26L23.87-28.26Q21.82-30.08 17.86-30.08L17.86-30.08L17.86-30.08Q13.89-30.08 11.84-28.26L11.84-28.26L11.84-28.26Q9.79-26.43 9.79-23.10L9.79-23.10L9.79-23.10Q9.79-19.78 11.84-17.95L11.84-17.95L11.84-17.95Q13.89-16.13 17.86-16.13L17.86-16.13ZM10.82 7.10L24 7.10L24 7.10Q26.11 7.10 27.52 5.95L27.52 5.95L27.52 5.95Q28.93 4.80 28.93 2.88L28.93 2.88L28.93 2.88Q28.93 0.96 27.81-0.16L27.81-0.16L27.81-0.16Q26.69-1.28 24.83-1.28L24.83-1.28L10.82-1.28L10.82-1.28Q8.96-1.28 7.87-0.16L7.87-0.16L7.87-0.16Q6.78 0.96 6.78 2.88L6.78 2.88L6.78 2.88Q6.78 4.80 7.87 5.95L7.87 5.95L7.87 5.95Q8.96 7.10 10.82 7.10L10.82 7.10ZM39.87 0L39.87-33.66L44.16-33.66L44.80-28.61L45.18-28.61L45.18-28.61Q46.14-31.10 48.06-32.77L48.06-32.77L48.06-32.77Q49.98-34.43 53.12-34.43L53.12-34.43L53.12-34.43Q54.21-34.43 55.07-34.21L55.07-34.21L55.07-34.21Q55.94-33.98 56.13-33.92L56.13-33.92L56.13-28.48L53.76-28.48L53.76-28.48Q50.18-28.48 47.84-26.40L47.84-26.40L47.84-26.40Q45.50-24.32 45.50-19.90L45.50-19.90L45.50 0L39.87 0ZM75.46 0.77L75.46 0.77Q67.33 0.77 63.36-3.52L63.36-3.52L63.36-3.52Q59.39-7.81 59.39-16.83L59.39-16.83L59.39-16.83Q59.39-25.86 63.36-30.14L63.36-30.14L63.36-30.14Q67.33-34.43 75.46-34.43L75.46-34.43L75.46-34.43Q82.75-34.43 86.37-30.56L86.37-30.56L86.37-30.56Q89.98-26.69 89.98-18.11L89.98-18.11L89.98-15.30L65.22-15.30L65.22-15.30Q65.54-9.47 68-6.69L68-6.69L68-6.69Q70.46-3.90 75.46-3.90L75.46-3.90L75.46-3.90Q79.49-3.90 81.98-5.76L81.98-5.76L81.98-5.76Q84.48-7.62 84.48-11.46L84.48-11.46L89.98-11.46L89.98-11.46Q89.98-5.57 85.92-2.40L85.92-2.40L85.92-2.40Q81.86 0.77 75.46 0.77L75.46 0.77ZM65.34-19.97L84.10-19.97L84.10-19.97Q84.10-29.76 75.46-29.76L75.46-29.76L75.46-29.76Q70.66-29.76 68.26-27.46L68.26-27.46L68.26-27.46Q65.86-25.15 65.34-19.97L65.34-19.97ZM111.04 0.77L111.04 0.77Q102.91 0.77 98.94-3.52L98.94-3.52L98.94-3.52Q94.98-7.81 94.98-16.83L94.98-16.83L94.98-16.83Q94.98-25.86 98.94-30.14L98.94-30.14L98.94-30.14Q102.91-34.43 111.04-34.43L111.04-34.43L111.04-34.43Q118.34-34.43 121.95-30.56L121.95-30.56L121.95-30.56Q125.57-26.69 125.57-18.11L125.57-18.11L125.57-15.30L100.80-15.30L100.80-15.30Q101.12-9.47 103.58-6.69L103.58-6.69L103.58-6.69Q106.05-3.90 111.04-3.90L111.04-3.90L111.04-3.90Q115.07-3.90 117.57-5.76L117.57-5.76L117.57-5.76Q120.06-7.62 120.06-11.46L120.06-11.46L125.57-11.46L125.57-11.46Q125.57-5.57 121.50-2.40L121.50-2.40L121.50-2.40Q117.44 0.77 111.04 0.77L111.04 0.77ZM100.93-19.97L119.68-19.97L119.68-19.97Q119.68-29.76 111.04-29.76L111.04-29.76L111.04-29.76Q106.24-29.76 103.84-27.46L103.84-27.46L103.84-27.46Q101.44-25.15 100.93-19.97L100.93-19.97ZM132.35 0L132.35-33.66L136.64-33.66L137.28-29.12L137.73-29.12L137.73-29.12Q141.44-34.43 149.06-34.43L149.06-34.43L149.06-34.43Q154.11-34.43 156.83-31.71L156.83-31.71L156.83-31.71Q159.55-28.99 159.55-22.98L159.55-22.98L159.55 0L153.92 0L153.92-22.59L153.92-22.59Q153.92-26.62 152.13-28.19L152.13-28.19L152.13-28.19Q150.34-29.76 146.94-29.76L146.94-29.76L146.94-29.76Q144.51-29.76 142.46-28.58L142.46-28.58L142.46-28.58Q140.42-27.39 139.20-25.15L139.20-25.15L139.20-25.15Q137.98-22.91 137.98-19.90L137.98-19.90L137.98 0L132.35 0ZM165.70-14.14L165.70-20.42L182.98-20.42L182.98-14.14L165.70-14.14ZM200.77 0.77L200.77 0.77Q196.10 0.77 192.99-0.61L192.99-0.61L192.99-0.61Q189.89-1.98 188.42-4.22L188.42-4.22L188.42-4.22Q186.94-6.46 186.94-9.09L186.94-9.09L186.94-9.09Q186.94-9.86 186.98-10.14L186.98-10.14L186.98-10.14Q187.01-10.43 187.01-10.50L187.01-10.50L192.58-10.50L192.58-9.86L192.58-9.86Q192.58-6.85 194.94-5.34L194.94-5.34L194.94-5.34Q197.31-3.84 201.09-3.84L201.09-3.84L201.09-3.84Q204.35-3.84 206.50-5.15L206.50-5.15L206.50-5.15Q208.64-6.46 208.64-8.83L208.64-8.83L208.64-8.83Q208.64-10.69 207.42-11.87L207.42-11.87L207.42-11.87Q206.21-13.06 204.42-13.73L204.42-13.73L204.42-13.73Q202.62-14.40 199.55-15.17L199.55-15.17L199.55-15.17Q195.84-16.13 193.50-17.09L193.50-17.09L193.50-17.09Q191.17-18.05 189.54-19.94L189.54-19.94L189.54-19.94Q187.90-21.82 187.90-24.83L187.90-24.83L187.90-24.83Q187.90-29.25 191.52-31.84L191.52-31.84L191.52-31.84Q195.14-34.43 201.28-34.43L201.28-34.43L201.28-34.43Q205.12-34.43 207.94-33.18L207.94-33.18L207.94-33.18Q210.75-31.94 212.19-29.86L212.19-29.86L212.19-29.86Q213.63-27.78 213.63-25.22L213.63-25.22L213.57-24L208.06-24L208.06-24.58L208.06-24.58Q208.06-26.82 206.30-28.29L206.30-28.29L206.30-28.29Q204.54-29.76 200.64-29.76L200.64-29.76L200.64-29.76Q196.80-29.76 195.26-28.38L195.26-28.38L195.26-28.38Q193.73-27.01 193.73-25.22L193.73-25.22L193.73-25.22Q193.73-23.74 194.82-22.78L194.82-22.78L194.82-22.78Q195.90-21.82 197.50-21.25L197.50-21.25L197.50-21.25Q199.10-20.67 201.98-19.97L201.98-19.97L201.98-19.97Q205.95-18.94 208.45-17.95L208.45-17.95L208.45-17.95Q210.94-16.96 212.70-14.94L212.70-14.94L212.70-14.94Q214.46-12.93 214.46-9.60L214.46-9.60L214.46-9.60Q214.46-4.42 210.72-1.82L210.72-1.82L210.72-1.82Q206.98 0.77 200.77 0.77L200.77 0.77ZM228.86 0.70L228.86 0.70Q225.41 0.70 223.81-1.34L223.81-1.34L223.81-1.34Q222.21-3.39 222.21-6.40L222.21-6.40L222.21-28.99L218.11-28.99L218.11-33.66L222.27-33.66L223.49-43.01L227.84-43.01L227.84-33.66L233.54-33.66L233.54-28.99L227.84-28.99L227.84-6.91L227.84-6.91Q227.84-3.90 230.66-3.90L230.66-3.90L233.54-3.90L233.54-0.19L233.54-0.19Q232.70 0.19 231.36 0.45L231.36 0.45L231.36 0.45Q230.02 0.70 228.86 0.70L228.86 0.70ZM252.54 0.77L252.54 0.77Q244.80 0.77 240.90-3.55L240.90-3.55L240.90-3.55Q236.99-7.87 236.99-16.83L236.99-16.83L236.99-16.83Q236.99-25.79 240.90-30.11L240.90-30.11L240.90-30.11Q244.80-34.43 252.54-34.43L252.54-34.43L252.54-34.43Q260.29-34.43 264.19-30.11L264.19-30.11L264.19-30.11Q268.10-25.79 268.10-16.83L268.10-16.83L268.10-16.83Q268.10-7.87 264.19-3.55L264.19-3.55L264.19-3.55Q260.29 0.77 252.54 0.77L252.54 0.77ZM252.54-3.90L252.54-3.90Q257.66-3.90 259.97-6.88L259.97-6.88L259.97-6.88Q262.27-9.86 262.27-16.58L262.27-16.58L262.27-17.09L262.27-17.09Q262.27-23.81 259.97-26.78L259.97-26.78L259.97-26.78Q257.66-29.76 252.54-29.76L252.54-29.76L252.54-29.76Q247.42-29.76 245.12-26.78L245.12-26.78L245.12-26.78Q242.82-23.81 242.82-17.09L242.82-17.09L242.82-16.58L242.82-16.58Q242.82-9.86 245.12-6.88L245.12-6.88L245.12-6.88Q247.42-3.90 252.54-3.90L252.54-3.90ZM274.62 0L274.62-33.66L278.91-33.66L279.55-28.61L279.94-28.61L279.94-28.61Q280.90-31.10 282.82-32.77L282.82-32.77L282.82-32.77Q284.74-34.43 287.87-34.43L287.87-34.43L287.87-34.43Q288.96-34.43 289.82-34.21L289.82-34.21L289.82-34.21Q290.69-33.98 290.88-33.92L290.88-33.92L290.88-28.48L288.51-28.48L288.51-28.48Q284.93-28.48 282.59-26.40L282.59-26.40L282.59-26.40Q280.26-24.32 280.26-19.90L280.26-19.90L280.26 0L274.62 0ZM310.21 0.77L310.21 0.77Q302.08 0.77 298.11-3.52L298.11-3.52L298.11-3.52Q294.14-7.81 294.14-16.83L294.14-16.83L294.14-16.83Q294.14-25.86 298.11-30.14L298.11-30.14L298.11-30.14Q302.08-34.43 310.21-34.43L310.21-34.43L310.21-34.43Q317.50-34.43 321.12-30.56L321.12-30.56L321.12-30.56Q324.74-26.69 324.74-18.11L324.74-18.11L324.74-15.30L299.97-15.30L299.97-15.30Q300.29-9.47 302.75-6.69L302.75-6.69L302.75-6.69Q305.22-3.90 310.21-3.90L310.21-3.90L310.21-3.90Q314.24-3.90 316.74-5.76L316.74-5.76L316.74-5.76Q319.23-7.62 319.23-11.46L319.23-11.46L324.74-11.46L324.74-11.46Q324.74-5.57 320.67-2.40L320.67-2.40L320.67-2.40Q316.61 0.77 310.21 0.77L310.21 0.77ZM300.10-19.97L318.85-19.97L318.85-19.97Q318.85-29.76 310.21-29.76L310.21-29.76L310.21-29.76Q305.41-29.76 303.01-27.46L303.01-27.46L303.01-27.46Q300.61-25.15 300.10-19.97L300.10-19.97Z" fill="none" stroke="#a3f4c4" stroke-width="0.8"></path></g></g><style>text {
  font-size: 64px;
  font-family: Arial Black;
  dominant-baseline: central;
  text-anchor: middle;
}</style></svg>