<svg width="513.6375122070312px" height="125.61248779296875px" xmlns="http://www.w3.org/2000/svg" viewBox="-6.818756103515625 12.193756103515625 513.6375122070312 125.61248779296875" style="background: none;" preserveAspectRatio="xMidYMid"><defs><filter id="editing-neon" x="-100%" y="-100%" width="300%" height="300%"><feFlood flood-color="#06623b" result="flood"></feFlood><feComposite operator="in" in="flood" in2="SourceAlpha" result="color"></feComposite><feFlood flood-color="#06623b" result="flood2"></feFlood><feComposite operator="in" in="flood2" in2="SourceAlpha" result="color2"></feComposite><feMorphology operator="dilate" radius="2" in="color" result="dilate"></feMorphology><feGaussianBlur stdDeviation="6" in="color" result="blur1"></feGaussianBlur><feGaussianBlur stdDeviation="2.5" in="color" result="blur2"></feGaussianBlur><feGaussianBlur stdDeviation="1" in="SourceAlpha" result="blur3"></feGaussianBlur><feGaussianBlur stdDeviation="6" in="dilate" result="blur4"></feGaussianBlur><feConvolveMatrix in="color2" result="conv" order="3,3" divisor="1" kernelMatrix="1 1 1  1 1 1  1 1 1"></feConvolveMatrix><feMerge><feMergeNode in="blur1"></feMergeNode><feMergeNode in="blur2"></feMergeNode><feMergeNode in="blur4"></feMergeNode><feMergeNode in="blur3"></feMergeNode><feMergeNode in="blur3"></feMergeNode><feMergeNode in="blur3"></feMergeNode><feMergeNode in="blur3"></feMergeNode><feMergeNode in="conv"></feMergeNode><feMergeNode in="SourceGraphic"></feMergeNode></feMerge></filter></defs><g filter="url(#editing-neon)"><g transform="translate(69.23499941825867, 105.31499862670898)"><path d="M11.43 12.92L11.43 12.92Q7.31 12.92 4.30 10.83L4.30 10.83L4.30 10.83Q1.28 8.73 1.28 3.91L1.28 3.91L1.28 3.91Q1.28-1.92 7.31-4.05L7.31-4.05L7.31-4.05Q5.61-4.97 4.51-6.43L4.51-6.43L4.51-6.43Q3.41-7.88 3.41-9.80L3.41-9.80L3.41-9.80Q3.41-12.57 5.36-13.99L5.36-13.99L5.36-13.99Q7.31-15.41 9.66-15.98L9.66-15.98L9.66-15.98Q7.31-17.68 5.96-20.16L5.96-20.16L5.96-20.16Q4.62-22.65 4.62-25.63L4.62-25.63L4.62-25.63Q4.62-31.60 8.66-34.90L8.66-34.90L8.66-34.90Q12.71-38.20 19.74-38.20L19.74-38.20L19.74-38.20Q23.64-38.20 26.84-36.92L26.84-36.92L26.84-36.92Q31.45-39.12 32.23-43.38L32.23-43.38L38.20-43.38L38.20-43.38Q38.20-40.04 36.25-37.63L36.25-37.63L36.25-37.63Q34.29-35.22 30.96-34.44L30.96-34.44L30.96-34.44Q34.93-30.89 34.93-25.63L34.93-25.63L34.93-25.63Q34.93-19.67 30.85-16.37L30.85-16.37L30.85-16.37Q26.77-13.06 19.74-13.06L19.74-13.06L13.77-13.06L13.77-13.06Q11.86-13.06 10.83-12.21L10.83-12.21L10.83-12.21Q9.80-11.36 9.80-10.01L9.80-10.01L9.80-10.01Q9.80-8.66 10.83-7.81L10.83-7.81L10.83-7.81Q11.86-6.96 13.77-6.96L13.77-6.96L28.76-6.96L28.76-6.96Q33.16-6.96 35.71-4.30L35.71-4.30L35.71-4.30Q38.27-1.63 38.27 2.13L38.27 2.13L38.27 2.13Q38.27 4.83 37.06 7.31L37.06 7.31L37.06 7.31Q35.86 9.80 33.19 11.36L33.19 11.36L33.19 11.36Q30.53 12.92 26.48 12.92L26.48 12.92L11.43 12.92ZM19.81-17.89L19.81-17.89Q24.21-17.89 26.48-19.92L26.48-19.92L26.48-19.92Q28.76-21.94 28.76-25.63L28.76-25.63L28.76-25.63Q28.76-29.32 26.48-31.35L26.48-31.35L26.48-31.35Q24.21-33.37 19.81-33.37L19.81-33.37L19.81-33.37Q15.41-33.37 13.14-31.35L13.14-31.35L13.14-31.35Q10.86-29.32 10.86-25.63L10.86-25.63L10.86-25.63Q10.86-21.94 13.14-19.92L13.14-19.92L13.14-19.92Q15.41-17.89 19.81-17.89L19.81-17.89ZM12.00 7.88L26.63 7.88L26.63 7.88Q28.97 7.88 30.53 6.60L30.53 6.60L30.53 6.60Q32.09 5.33 32.09 3.20L32.09 3.20L32.09 3.20Q32.09 1.07 30.85-0.18L30.85-0.18L30.85-0.18Q29.61-1.42 27.55-1.42L27.55-1.42L12.00-1.42L12.00-1.42Q9.94-1.42 8.73-0.18L8.73-0.18L8.73-0.18Q7.53 1.07 7.53 3.20L7.53 3.20L7.53 3.20Q7.53 5.33 8.73 6.60L8.73 6.60L8.73 6.60Q9.94 7.88 12.00 7.88L12.00 7.88ZM44.23 0L44.23-37.35L48.99-37.35L49.70-31.74L50.13-31.74L50.13-31.74Q51.19-34.51 53.32-36.35L53.32-36.35L53.32-36.35Q55.45-38.20 58.93-38.20L58.93-38.20L58.93-38.20Q60.14-38.20 61.10-37.95L61.10-37.95L61.10-37.95Q62.05-37.70 62.27-37.63L62.27-37.63L62.27-31.60L59.64-31.60L59.64-31.60Q55.66-31.60 53.07-29.29L53.07-29.29L53.07-29.29Q50.48-26.98 50.48-22.08L50.48-22.08L50.48 0L44.23 0ZM83.71 0.85L83.71 0.85Q74.69 0.85 70.29-3.91L70.29-3.91L70.29-3.91Q65.89-8.66 65.89-18.67L65.89-18.67L65.89-18.67Q65.89-28.68 70.29-33.44L70.29-33.44L70.29-33.44Q74.69-38.20 83.71-38.20L83.71-38.20L83.71-38.20Q91.80-38.20 95.81-33.90L95.81-33.90L95.81-33.90Q99.83-29.61 99.83-20.09L99.83-20.09L99.83-16.97L72.35-16.97L72.35-16.97Q72.70-10.51 75.44-7.42L75.44-7.42L75.44-7.42Q78.17-4.33 83.71-4.33L83.71-4.33L83.71-4.33Q88.18-4.33 90.95-6.39L90.95-6.39L90.95-6.39Q93.72-8.45 93.72-12.71L93.72-12.71L99.83-12.71L99.83-12.71Q99.83-6.18 95.32-2.66L95.32-2.66L95.32-2.66Q90.81 0.85 83.71 0.85L83.71 0.85ZM72.49-22.15L93.29-22.15L93.29-22.15Q93.29-33.02 83.71-33.02L83.71-33.02L83.71-33.02Q78.38-33.02 75.72-30.46L75.72-30.46L75.72-30.46Q73.06-27.90 72.49-22.15L72.49-22.15ZM123.19 0.85L123.19 0.85Q114.17 0.85 109.77-3.91L109.77-3.91L109.77-3.91Q105.36-8.66 105.36-18.67L105.36-18.67L105.36-18.67Q105.36-28.68 109.77-33.44L109.77-33.44L109.77-33.44Q114.17-38.20 123.19-38.20L123.19-38.20L123.19-38.20Q131.28-38.20 135.29-33.90L135.29-33.90L135.29-33.90Q139.30-29.61 139.30-20.09L139.30-20.09L139.30-16.97L111.83-16.97L111.83-16.97Q112.18-10.51 114.91-7.42L114.91-7.42L114.91-7.42Q117.65-4.33 123.19-4.33L123.19-4.33L123.19-4.33Q127.66-4.33 130.43-6.39L130.43-6.39L130.43-6.39Q133.20-8.45 133.20-12.71L133.20-12.71L139.30-12.71L139.30-12.71Q139.30-6.18 134.79-2.66L134.79-2.66L134.79-2.66Q130.29 0.85 123.19 0.85L123.19 0.85ZM111.97-22.15L132.77-22.15L132.77-22.15Q132.77-33.02 123.19-33.02L123.19-33.02L123.19-33.02Q117.86-33.02 115.20-30.46L115.20-30.46L115.20-30.46Q112.54-27.90 111.97-22.15L111.97-22.15ZM146.83 0L146.83-37.35L151.59-37.35L152.30-32.31L152.79-32.31L152.79-32.31Q156.91-38.20 165.36-38.20L165.36-38.20L165.36-38.20Q170.97-38.20 173.99-35.18L173.99-35.18L173.99-35.18Q177.00-32.16 177.00-25.49L177.00-25.49L177.00 0L170.76 0L170.76-25.06L170.76-25.06Q170.76-29.54 168.77-31.28L168.77-31.28L168.77-31.28Q166.78-33.02 163.02-33.02L163.02-33.02L163.02-33.02Q160.32-33.02 158.05-31.70L158.05-31.70L158.05-31.70Q155.77-30.39 154.43-27.90L154.43-27.90L154.43-27.90Q153.08-25.42 153.08-22.08L153.08-22.08L153.08 0L146.83 0ZM183.82-15.69L183.82-22.65L202.99-22.65L202.99-15.69L183.82-15.69ZM222.73 0.85L222.73 0.85Q217.54 0.85 214.10-0.67L214.10-0.67L214.10-0.67Q210.66-2.20 209.02-4.69L209.02-4.69L209.02-4.69Q207.39-7.17 207.39-10.08L207.39-10.08L207.39-10.08Q207.39-10.93 207.43-11.25L207.43-11.25L207.43-11.25Q207.46-11.57 207.46-11.64L207.46-11.64L213.64-11.64L213.64-10.93L213.64-10.93Q213.64-7.60 216.27-5.93L216.27-5.93L216.27-5.93Q218.89-4.26 223.08-4.26L223.08-4.26L223.08-4.26Q226.70-4.26 229.08-5.72L229.08-5.72L229.08-5.72Q231.46-7.17 231.46-9.80L231.46-9.80L231.46-9.80Q231.46-11.86 230.11-13.17L230.11-13.17L230.11-13.17Q228.76-14.48 226.77-15.23L226.77-15.23L226.77-15.23Q224.79-15.98 221.38-16.83L221.38-16.83L221.38-16.83Q217.26-17.89 214.67-18.96L214.67-18.96L214.67-18.96Q212.08-20.02 210.27-22.12L210.27-22.12L210.27-22.12Q208.46-24.21 208.46-27.55L208.46-27.55L208.46-27.55Q208.46-32.45 212.47-35.32L212.47-35.32L212.47-35.32Q216.48-38.20 223.30-38.20L223.30-38.20L223.30-38.20Q227.56-38.20 230.68-36.81L230.68-36.81L230.68-36.81Q233.80-35.43 235.40-33.12L235.40-33.12L235.40-33.12Q237.00-30.81 237.00-27.97L237.00-27.97L236.93-26.63L230.82-26.63L230.82-27.26L230.82-27.26Q230.82-29.75 228.87-31.38L228.87-31.38L228.87-31.38Q226.92-33.02 222.59-33.02L222.59-33.02L222.59-33.02Q218.33-33.02 216.62-31.49L216.62-31.49L216.62-31.49Q214.92-29.96 214.92-27.97L214.92-27.97L214.92-27.97Q214.92-26.34 216.12-25.28L216.12-25.28L216.12-25.28Q217.33-24.21 219.11-23.57L219.11-23.57L219.11-23.57Q220.88-22.93 224.08-22.15L224.08-22.15L224.08-22.15Q228.48-21.02 231.25-19.92L231.25-19.92L231.25-19.92Q234.02-18.82 235.97-16.58L235.97-16.58L235.97-16.58Q237.92-14.34 237.92-10.65L237.92-10.65L237.92-10.65Q237.92-4.90 233.77-2.02L233.77-2.02L233.77-2.02Q229.61 0.85 222.73 0.85L222.73 0.85ZM253.90 0.78L253.90 0.78Q250.06 0.78 248.29-1.49L248.29-1.49L248.29-1.49Q246.51-3.76 246.51-7.10L246.51-7.10L246.51-32.16L241.97-32.16L241.97-37.35L246.58-37.35L247.93-47.71L252.76-47.71L252.76-37.35L259.08-37.35L259.08-32.16L252.76-32.16L252.76-7.67L252.76-7.67Q252.76-4.33 255.88-4.33L255.88-4.33L259.08-4.33L259.08-0.21L259.08-0.21Q258.16 0.21 256.67 0.50L256.67 0.50L256.67 0.50Q255.17 0.78 253.90 0.78L253.90 0.78ZM280.17 0.85L280.17 0.85Q271.58 0.85 267.24-3.94L267.24-3.94L267.24-3.94Q262.91-8.73 262.91-18.67L262.91-18.67L262.91-18.67Q262.91-28.61 267.24-33.41L267.24-33.41L267.24-33.41Q271.58-38.20 280.17-38.20L280.17-38.20L280.17-38.20Q288.76-38.20 293.09-33.41L293.09-33.41L293.09-33.41Q297.42-28.61 297.42-18.67L297.42-18.67L297.42-18.67Q297.42-8.73 293.09-3.94L293.09-3.94L293.09-3.94Q288.76 0.85 280.17 0.85L280.17 0.85ZM280.17-4.33L280.17-4.33Q285.85-4.33 288.40-7.63L288.40-7.63L288.40-7.63Q290.96-10.93 290.96-18.39L290.96-18.39L290.96-18.96L290.96-18.96Q290.96-26.41 288.40-29.71L288.40-29.71L288.40-29.71Q285.85-33.02 280.17-33.02L280.17-33.02L280.17-33.02Q274.49-33.02 271.93-29.71L271.93-29.71L271.93-29.71Q269.37-26.41 269.37-18.96L269.37-18.96L269.37-18.39L269.37-18.39Q269.37-10.93 271.93-7.63L271.93-7.63L271.93-7.63Q274.49-4.33 280.17-4.33L280.17-4.33ZM304.66 0L304.66-37.35L309.42-37.35L310.13-31.74L310.55-31.74L310.55-31.74Q311.62-34.51 313.75-36.35L313.75-36.35L313.75-36.35Q315.88-38.20 319.36-38.20L319.36-38.20L319.36-38.20Q320.57-38.20 321.52-37.95L321.52-37.95L321.52-37.95Q322.48-37.70 322.70-37.63L322.70-37.63L322.70-31.60L320.07-31.60L320.07-31.60Q316.09-31.60 313.50-29.29L313.50-29.29L313.50-29.29Q310.91-26.98 310.91-22.08L310.91-22.08L310.91 0L304.66 0ZM344.14 0.85L344.14 0.85Q335.12 0.85 330.72-3.91L330.72-3.91L330.72-3.91Q326.32-8.66 326.32-18.67L326.32-18.67L326.32-18.67Q326.32-28.68 330.72-33.44L330.72-33.44L330.72-33.44Q335.12-38.20 344.14-38.20L344.14-38.20L344.14-38.20Q352.23-38.20 356.24-33.90L356.24-33.90L356.24-33.90Q360.25-29.61 360.25-20.09L360.25-20.09L360.25-16.97L332.78-16.97L332.78-16.97Q333.13-10.51 335.87-7.42L335.87-7.42L335.87-7.42Q338.60-4.33 344.14-4.33L344.14-4.33L344.14-4.33Q348.61-4.33 351.38-6.39L351.38-6.39L351.38-6.39Q354.15-8.45 354.15-12.71L354.15-12.71L360.25-12.71L360.25-12.71Q360.25-6.18 355.75-2.66L355.75-2.66L355.75-2.66Q351.24 0.85 344.14 0.85L344.14 0.85ZM332.92-22.15L353.72-22.15L353.72-22.15Q353.72-33.02 344.14-33.02L344.14-33.02L344.14-33.02Q338.81-33.02 336.15-30.46L336.15-30.46L336.15-30.46Q333.49-27.90 332.92-22.15L332.92-22.15Z" fill="none" stroke="#a3f4c4" stroke-width="0.7"></path></g></g><style>text {
  font-size: 64px;
  font-family: Arial Black;
  dominant-baseline: central;
  text-anchor: middle;
}</style></svg>