<svg width="242.52998046874998px" height="114.817578125px" xmlns="http://www.w3.org/2000/svg" viewBox="128.73500976562502 17.5912109375 242.52998046874998 114.817578125" style="background: none;" preserveAspectRatio="xMidYMid"><defs><filter id="editing-neon" x="-100%" y="-100%" width="300%" height="300%"><feFlood flood-color="#06623b" result="flood"></feFlood><feComposite operator="in" in="flood" in2="SourceAlpha" result="color"></feComposite><feFlood flood-color="#06623b" result="flood2"></feFlood><feComposite operator="in" in="flood2" in2="SourceAlpha" result="color2"></feComposite><feMorphology operator="dilate" radius="2" in="color" result="dilate"></feMorphology><feGaussianBlur stdDeviation="6" in="color" result="blur1"></feGaussianBlur><feGaussianBlur stdDeviation="2.5" in="color" result="blur2"></feGaussianBlur><feGaussianBlur stdDeviation="1" in="SourceAlpha" result="blur3"></feGaussianBlur><feGaussianBlur stdDeviation="6" in="dilate" result="blur4"></feGaussianBlur><feConvolveMatrix in="color2" result="conv" order="3,3" divisor="1" kernelMatrix="1 1 1  1 1 1  1 1 1"></feConvolveMatrix><feMerge><feMergeNode in="blur1"></feMergeNode><feMergeNode in="blur2"></feMergeNode><feMergeNode in="blur4"></feMergeNode><feMergeNode in="blur3"></feMergeNode><feMergeNode in="blur3"></feMergeNode><feMergeNode in="blur3"></feMergeNode><feMergeNode in="blur3"></feMergeNode><feMergeNode in="conv"></feMergeNode><feMergeNode in="SourceGraphic"></feMergeNode></feMerge></filter></defs><g filter="url(#editing-neon)"><g transform="translate(169.64999544620514, 100.375)"><path d="M10.30 11.65L10.30 11.65Q6.59 11.65 3.87 9.76L3.87 9.76L3.87 9.76Q1.15 7.87 1.15 3.52L1.15 3.52L1.15 3.52Q1.15-1.73 6.59-3.65L6.59-3.65L6.59-3.65Q5.06-4.48 4.06-5.79L4.06-5.79L4.06-5.79Q3.07-7.10 3.07-8.83L3.07-8.83L3.07-8.83Q3.07-11.33 4.83-12.61L4.83-12.61L4.83-12.61Q6.59-13.89 8.70-14.40L8.70-14.40L8.70-14.40Q6.59-15.94 5.38-18.18L5.38-18.18L5.38-18.18Q4.16-20.42 4.16-23.10L4.16-23.10L4.16-23.10Q4.16-28.48 7.81-31.46L7.81-31.46L7.81-31.46Q11.46-34.43 17.79-34.43L17.79-34.43L17.79-34.43Q21.31-34.43 24.19-33.28L24.19-33.28L24.19-33.28Q28.35-35.26 29.06-39.10L29.06-39.10L34.43-39.10L34.43-39.10Q34.43-36.10 32.67-33.92L32.67-33.92L32.67-33.92Q30.91-31.74 27.90-31.04L27.90-31.04L27.90-31.04Q31.49-27.84 31.49-23.10L31.49-23.10L31.49-23.10Q31.49-17.73 27.81-14.75L27.81-14.75L27.81-14.75Q24.13-11.78 17.79-11.78L17.79-11.78L12.42-11.78L12.42-11.78Q10.69-11.78 9.76-11.01L9.76-11.01L9.76-11.01Q8.83-10.24 8.83-9.02L8.83-9.02L8.83-9.02Q8.83-7.81 9.76-7.04L9.76-7.04L9.76-7.04Q10.69-6.27 12.42-6.27L12.42-6.27L25.92-6.27L25.92-6.27Q29.89-6.27 32.19-3.87L32.19-3.87L32.19-3.87Q34.50-1.47 34.50 1.92L34.50 1.92L34.50 1.92Q34.50 4.35 33.41 6.59L33.41 6.59L33.41 6.59Q32.32 8.83 29.92 10.24L29.92 10.24L29.92 10.24Q27.52 11.65 23.87 11.65L23.87 11.65L10.30 11.65ZM17.86-16.13L17.86-16.13Q21.82-16.13 23.87-17.95L23.87-17.95L23.87-17.95Q25.92-19.78 25.92-23.10L25.92-23.10L25.92-23.10Q25.92-26.43 23.87-28.26L23.87-28.26L23.87-28.26Q21.82-30.08 17.86-30.08L17.86-30.08L17.86-30.08Q13.89-30.08 11.84-28.26L11.84-28.26L11.84-28.26Q9.79-26.43 9.79-23.10L9.79-23.10L9.79-23.10Q9.79-19.78 11.84-17.95L11.84-17.95L11.84-17.95Q13.89-16.13 17.86-16.13L17.86-16.13ZM10.82 7.10L24 7.10L24 7.10Q26.11 7.10 27.52 5.95L27.52 5.95L27.52 5.95Q28.93 4.80 28.93 2.88L28.93 2.88L28.93 2.88Q28.93 0.96 27.81-0.16L27.81-0.16L27.81-0.16Q26.69-1.28 24.83-1.28L24.83-1.28L10.82-1.28L10.82-1.28Q8.96-1.28 7.87-0.16L7.87-0.16L7.87-0.16Q6.78 0.96 6.78 2.88L6.78 2.88L6.78 2.88Q6.78 4.80 7.87 5.95L7.87 5.95L7.87 5.95Q8.96 7.10 10.82 7.10L10.82 7.10ZM39.87 0L39.87-33.66L44.16-33.66L44.80-28.61L45.18-28.61L45.18-28.61Q46.14-31.10 48.06-32.77L48.06-32.77L48.06-32.77Q49.98-34.43 53.12-34.43L53.12-34.43L53.12-34.43Q54.21-34.43 55.07-34.21L55.07-34.21L55.07-34.21Q55.94-33.98 56.13-33.92L56.13-33.92L56.13-28.48L53.76-28.48L53.76-28.48Q50.18-28.48 47.84-26.40L47.84-26.40L47.84-26.40Q45.50-24.32 45.50-19.90L45.50-19.90L45.50 0L39.87 0ZM75.46 0.77L75.46 0.77Q67.33 0.77 63.36-3.52L63.36-3.52L63.36-3.52Q59.39-7.81 59.39-16.83L59.39-16.83L59.39-16.83Q59.39-25.86 63.36-30.14L63.36-30.14L63.36-30.14Q67.33-34.43 75.46-34.43L75.46-34.43L75.46-34.43Q82.75-34.43 86.37-30.56L86.37-30.56L86.37-30.56Q89.98-26.69 89.98-18.11L89.98-18.11L89.98-15.30L65.22-15.30L65.22-15.30Q65.54-9.47 68-6.69L68-6.69L68-6.69Q70.46-3.90 75.46-3.90L75.46-3.90L75.46-3.90Q79.49-3.90 81.98-5.76L81.98-5.76L81.98-5.76Q84.48-7.62 84.48-11.46L84.48-11.46L89.98-11.46L89.98-11.46Q89.98-5.57 85.92-2.40L85.92-2.40L85.92-2.40Q81.86 0.77 75.46 0.77L75.46 0.77ZM65.34-19.97L84.10-19.97L84.10-19.97Q84.10-29.76 75.46-29.76L75.46-29.76L75.46-29.76Q70.66-29.76 68.26-27.46L68.26-27.46L68.26-27.46Q65.86-25.15 65.34-19.97L65.34-19.97ZM111.04 0.77L111.04 0.77Q102.91 0.77 98.94-3.52L98.94-3.52L98.94-3.52Q94.98-7.81 94.98-16.83L94.98-16.83L94.98-16.83Q94.98-25.86 98.94-30.14L98.94-30.14L98.94-30.14Q102.91-34.43 111.04-34.43L111.04-34.43L111.04-34.43Q118.34-34.43 121.95-30.56L121.95-30.56L121.95-30.56Q125.57-26.69 125.57-18.11L125.57-18.11L125.57-15.30L100.80-15.30L100.80-15.30Q101.12-9.47 103.58-6.69L103.58-6.69L103.58-6.69Q106.05-3.90 111.04-3.90L111.04-3.90L111.04-3.90Q115.07-3.90 117.57-5.76L117.57-5.76L117.57-5.76Q120.06-7.62 120.06-11.46L120.06-11.46L125.57-11.46L125.57-11.46Q125.57-5.57 121.50-2.40L121.50-2.40L121.50-2.40Q117.44 0.77 111.04 0.77L111.04 0.77ZM100.93-19.97L119.68-19.97L119.68-19.97Q119.68-29.76 111.04-29.76L111.04-29.76L111.04-29.76Q106.24-29.76 103.84-27.46L103.84-27.46L103.84-27.46Q101.44-25.15 100.93-19.97L100.93-19.97ZM132.35 0L132.35-33.66L136.64-33.66L137.28-29.12L137.73-29.12L137.73-29.12Q141.44-34.43 149.06-34.43L149.06-34.43L149.06-34.43Q154.11-34.43 156.83-31.71L156.83-31.71L156.83-31.71Q159.55-28.99 159.55-22.98L159.55-22.98L159.55 0L153.92 0L153.92-22.59L153.92-22.59Q153.92-26.62 152.13-28.19L152.13-28.19L152.13-28.19Q150.34-29.76 146.94-29.76L146.94-29.76L146.94-29.76Q144.51-29.76 142.46-28.58L142.46-28.58L142.46-28.58Q140.42-27.39 139.20-25.15L139.20-25.15L139.20-25.15Q137.98-22.91 137.98-19.90L137.98-19.90L137.98 0L132.35 0Z" fill="none" stroke="#a3f4c4" stroke-width="0.8"></path></g></g><style>text {
  font-size: 64px;
  font-family: Arial Black;
  dominant-baseline: central;
  text-anchor: middle;
}</style></svg>